<mxfile host="app.diagrams.net" modified="2024-08-13T03:37:02.883Z" agent="Mozilla/5.0 (Windows NT 10.0; Win64; x64) AppleWebKit/537.36 (KHTML, like Gecko) Chrome/112.0.0.0 Safari/537.36" etag="Mw-vEweVVoJFn1MMGn0d" version="24.4.8" type="github">
  <diagram id="C5RBs43oDa-KdzZeNtuy" name="Page-1">
    <mxGraphModel dx="2130" dy="665" grid="1" gridSize="10" guides="1" tooltips="1" connect="1" arrows="1" fold="1" page="1" pageScale="1" pageWidth="827" pageHeight="1169" math="1" shadow="0">
      <root>
        <mxCell id="WIyWlLk6GJQsqaUBKTNV-0" />
        <mxCell id="WIyWlLk6GJQsqaUBKTNV-1" parent="WIyWlLk6GJQsqaUBKTNV-0" />
        <mxCell id="U-d6bVqtbt9CfZtdxkYJ-5" value="" style="edgeStyle=orthogonalEdgeStyle;rounded=0;orthogonalLoop=1;jettySize=auto;html=1;fontFamily=Helvetica;fontSize=12;fontColor=default;entryX=0;entryY=0.5;entryDx=0;entryDy=0;exitX=1;exitY=0.5;exitDx=0;exitDy=0;" edge="1" parent="WIyWlLk6GJQsqaUBKTNV-1" source="U-d6bVqtbt9CfZtdxkYJ-4" target="U-d6bVqtbt9CfZtdxkYJ-7">
          <mxGeometry relative="1" as="geometry">
            <mxPoint x="-211.65048543689323" y="116" as="sourcePoint" />
            <mxPoint x="-47.18446601941747" y="116" as="targetPoint" />
          </mxGeometry>
        </mxCell>
        <mxCell id="U-d6bVqtbt9CfZtdxkYJ-4" value="&lt;font style=&quot;font-size: 14px;&quot;&gt;Data: \(\left\{(x_i,y_i)|(0,0), (\frac{\pi}{2},1), (\pi,0), (\frac{3\pi}{2},-1)\right \}\)&lt;/font&gt;" style="rounded=1;whiteSpace=wrap;html=1;fontSize=12;glass=0;strokeWidth=1;shadow=0;container=0;" vertex="1" parent="WIyWlLk6GJQsqaUBKTNV-1">
          <mxGeometry x="-500" y="110" width="331.06796116504853" height="80" as="geometry" />
        </mxCell>
        <mxCell id="U-d6bVqtbt9CfZtdxkYJ-7" value="&lt;font style=&quot;font-size: 14px;&quot;&gt;Input \(x_i\times\) binary weight (-1 or 1) \(=z_i\)&lt;/font&gt;" style="rounded=1;whiteSpace=wrap;html=1;fontSize=12;glass=0;strokeWidth=1;shadow=0;container=0;" vertex="1" parent="WIyWlLk6GJQsqaUBKTNV-1">
          <mxGeometry x="-147.5728155339806" y="110" width="192.23300970873785" height="80" as="geometry" />
        </mxCell>
        <mxCell id="U-d6bVqtbt9CfZtdxkYJ-8" value="" style="edgeStyle=orthogonalEdgeStyle;rounded=0;orthogonalLoop=1;jettySize=auto;html=1;fontFamily=Helvetica;fontSize=12;fontColor=default;exitX=1;exitY=0.5;exitDx=0;exitDy=0;movable=0;resizable=0;rotatable=0;deletable=0;editable=0;locked=1;connectable=0;entryX=0;entryY=0.5;entryDx=0;entryDy=0;" edge="1" parent="WIyWlLk6GJQsqaUBKTNV-1" source="U-d6bVqtbt9CfZtdxkYJ-7" target="U-d6bVqtbt9CfZtdxkYJ-10">
          <mxGeometry relative="1" as="geometry">
            <mxPoint x="-158.252427184466" y="163.33333333333331" as="sourcePoint" />
            <mxPoint x="108.73786407766988" y="150" as="targetPoint" />
          </mxGeometry>
        </mxCell>
        <mxCell id="U-d6bVqtbt9CfZtdxkYJ-9" value="&lt;font style=&quot;font-size: 14px;&quot;&gt;sin(z)&lt;/font&gt;" style="text;html=1;align=center;verticalAlign=middle;whiteSpace=wrap;rounded=0;fontFamily=Helvetica;fontSize=12;fontColor=default;movable=1;resizable=1;rotatable=1;deletable=1;editable=1;locked=0;connectable=1;container=0;" vertex="1" parent="WIyWlLk6GJQsqaUBKTNV-1">
          <mxGeometry x="44.660194174757294" y="110" width="42.71844660194175" height="40" as="geometry" />
        </mxCell>
        <mxCell id="U-d6bVqtbt9CfZtdxkYJ-10" value="&lt;font style=&quot;font-size: 14px;&quot;&gt;Binarize \(sin(z_i)\) by \(sign(z_i)=B(z_i)\)&lt;/font&gt;" style="rounded=1;whiteSpace=wrap;html=1;fontSize=12;glass=0;strokeWidth=1;shadow=0;container=0;" vertex="1" parent="WIyWlLk6GJQsqaUBKTNV-1">
          <mxGeometry x="87.38" y="110" width="130" height="80" as="geometry" />
        </mxCell>
        <mxCell id="U-d6bVqtbt9CfZtdxkYJ-12" value="&lt;font style=&quot;&quot;&gt;&lt;font style=&quot;font-size: 14px;&quot;&gt;\(\hat{y_i}=B(\sum_{j}^{2}B_j(sin(z_i))) \), &lt;/font&gt;&lt;font style=&quot;font-size: 12px;&quot;&gt;\(j\) is the \(j\)th neuron in hidden layer&lt;/font&gt;&lt;/font&gt;" style="rounded=1;whiteSpace=wrap;html=1;fontSize=12;glass=0;strokeWidth=1;shadow=0;container=0;" vertex="1" parent="WIyWlLk6GJQsqaUBKTNV-1">
          <mxGeometry x="236.89" y="110" width="193.11" height="80" as="geometry" />
        </mxCell>
        <mxCell id="U-d6bVqtbt9CfZtdxkYJ-16" value="" style="endArrow=classic;html=1;rounded=0;fontFamily=Helvetica;fontSize=12;fontColor=default;entryX=0;entryY=0.5;entryDx=0;entryDy=0;exitX=1;exitY=0.5;exitDx=0;exitDy=0;" edge="1" parent="WIyWlLk6GJQsqaUBKTNV-1" source="U-d6bVqtbt9CfZtdxkYJ-10" target="U-d6bVqtbt9CfZtdxkYJ-12">
          <mxGeometry width="50" height="50" relative="1" as="geometry">
            <mxPoint x="130.0970873786407" y="110" as="sourcePoint" />
            <mxPoint x="183.495145631068" y="43.33333333333334" as="targetPoint" />
            <Array as="points" />
          </mxGeometry>
        </mxCell>
        <mxCell id="U-d6bVqtbt9CfZtdxkYJ-19" value="" style="endArrow=classic;html=1;rounded=0;fontFamily=Helvetica;fontSize=12;fontColor=default;exitX=1;exitY=0.5;exitDx=0;exitDy=0;entryX=0;entryY=0.5;entryDx=0;entryDy=0;" edge="1" parent="WIyWlLk6GJQsqaUBKTNV-1" source="U-d6bVqtbt9CfZtdxkYJ-12" target="U-d6bVqtbt9CfZtdxkYJ-20">
          <mxGeometry width="50" height="50" relative="1" as="geometry">
            <mxPoint x="236.89320388349518" y="163.33333333333331" as="sourcePoint" />
            <mxPoint x="493.20388349514565" y="150" as="targetPoint" />
            <Array as="points" />
          </mxGeometry>
        </mxCell>
        <mxCell id="U-d6bVqtbt9CfZtdxkYJ-20" value="&lt;font style=&quot;font-size: 14px;&quot;&gt;Cost function: \(\sum_{i}^{2}(y_i-\hat{y_i})^2 \)&lt;/font&gt;" style="rounded=1;whiteSpace=wrap;html=1;fontSize=12;glass=0;strokeWidth=1;shadow=0;container=0;" vertex="1" parent="WIyWlLk6GJQsqaUBKTNV-1">
          <mxGeometry x="450" y="110" width="150" height="80" as="geometry" />
        </mxCell>
        <mxCell id="U-d6bVqtbt9CfZtdxkYJ-23" value="" style="endArrow=classic;html=1;rounded=0;fontFamily=Helvetica;fontSize=12;fontColor=default;exitX=0.5;exitY=1;exitDx=0;exitDy=0;entryX=1;entryY=0.5;entryDx=0;entryDy=0;" edge="1" parent="WIyWlLk6GJQsqaUBKTNV-1" source="U-d6bVqtbt9CfZtdxkYJ-20" target="U-d6bVqtbt9CfZtdxkYJ-24">
          <mxGeometry width="50" height="50" relative="1" as="geometry">
            <mxPoint x="525.2427184466019" y="310" as="sourcePoint" />
            <mxPoint x="215.53398058252424" y="350" as="targetPoint" />
            <Array as="points">
              <mxPoint x="525" y="350" />
            </Array>
          </mxGeometry>
        </mxCell>
        <mxCell id="U-d6bVqtbt9CfZtdxkYJ-24" value="&lt;div style=&quot;font-size: 14px;&quot;&gt;&lt;font style=&quot;font-size: 14px;&quot;&gt;&lt;br&gt;&lt;/font&gt;&lt;/div&gt;&lt;div style=&quot;font-size: 14px;&quot;&gt;&lt;font style=&quot;font-size: 14px;&quot;&gt;Straight through estimator&lt;/font&gt;&lt;/div&gt;&lt;div style=&quot;font-size: 14px;&quot;&gt;&lt;font style=&quot;font-size: 14px;&quot;&gt;(STE)&lt;/font&gt;&lt;/div&gt;&lt;div style=&quot;font-size: 14px;&quot;&gt;&lt;font style=&quot;font-size: 14px;&quot;&gt;hardtanh(z)&lt;/font&gt;&lt;/div&gt;&lt;div style=&quot;font-size: 14px;&quot;&gt;&lt;br&gt;&lt;/div&gt;" style="rounded=1;whiteSpace=wrap;html=1;fontSize=12;glass=0;strokeWidth=1;shadow=0;container=0;" vertex="1" parent="WIyWlLk6GJQsqaUBKTNV-1">
          <mxGeometry x="236.89320388349518" y="310" width="170.873786407767" height="80" as="geometry" />
        </mxCell>
        <mxCell id="U-d6bVqtbt9CfZtdxkYJ-25" value="&lt;font style=&quot;font-size: 14px;&quot;&gt;Continuous weight&lt;/font&gt;" style="rounded=1;whiteSpace=wrap;html=1;fontSize=12;glass=0;strokeWidth=1;shadow=0;container=0;" vertex="1" parent="WIyWlLk6GJQsqaUBKTNV-1">
          <mxGeometry x="-147.5728155339806" y="310" width="192.23300970873785" height="80" as="geometry" />
        </mxCell>
        <mxCell id="U-d6bVqtbt9CfZtdxkYJ-26" value="" style="endArrow=classic;html=1;rounded=0;fontFamily=Helvetica;fontSize=12;fontColor=default;exitX=0;exitY=0.5;exitDx=0;exitDy=0;entryX=1;entryY=0.5;entryDx=0;entryDy=0;" edge="1" parent="WIyWlLk6GJQsqaUBKTNV-1" source="U-d6bVqtbt9CfZtdxkYJ-24" target="U-d6bVqtbt9CfZtdxkYJ-25">
          <mxGeometry width="50" height="50" relative="1" as="geometry">
            <mxPoint x="183.495145631068" y="243.33333333333331" as="sourcePoint" />
            <mxPoint x="236.89320388349518" y="176.66666666666666" as="targetPoint" />
          </mxGeometry>
        </mxCell>
        <mxCell id="U-d6bVqtbt9CfZtdxkYJ-27" value="&lt;font style=&quot;font-size: 14px;&quot;&gt;Gradient Descent&lt;/font&gt;" style="text;html=1;align=center;verticalAlign=middle;whiteSpace=wrap;rounded=0;fontFamily=Helvetica;fontSize=12;fontColor=default;container=0;" vertex="1" parent="WIyWlLk6GJQsqaUBKTNV-1">
          <mxGeometry x="76.69902912621353" y="310" width="128.15533980582524" height="40" as="geometry" />
        </mxCell>
        <mxCell id="U-d6bVqtbt9CfZtdxkYJ-29" value="" style="endArrow=classic;html=1;rounded=0;fontFamily=Helvetica;fontSize=12;fontColor=default;entryX=0.5;entryY=1;entryDx=0;entryDy=0;exitX=0.5;exitY=0;exitDx=0;exitDy=0;" edge="1" parent="WIyWlLk6GJQsqaUBKTNV-1" source="U-d6bVqtbt9CfZtdxkYJ-25" target="U-d6bVqtbt9CfZtdxkYJ-7">
          <mxGeometry width="50" height="50" relative="1" as="geometry">
            <mxPoint x="-30.097087378640765" y="270" as="sourcePoint" />
            <mxPoint x="1.9417475728155296" y="243.33333333333331" as="targetPoint" />
          </mxGeometry>
        </mxCell>
        <mxCell id="U-d6bVqtbt9CfZtdxkYJ-30" value="&lt;font style=&quot;font-size: 14px;&quot;&gt;Binarize weight&lt;/font&gt;" style="text;html=1;align=center;verticalAlign=middle;whiteSpace=wrap;rounded=0;fontFamily=Helvetica;fontSize=12;fontColor=default;container=0;" vertex="1" parent="WIyWlLk6GJQsqaUBKTNV-1">
          <mxGeometry x="-51.45631067961165" y="230" width="64.07766990291262" height="40" as="geometry" />
        </mxCell>
      </root>
    </mxGraphModel>
  </diagram>
</mxfile>
